<svg width="100" height="100" viewBox="0 0 100 100" fill="none" xmlns="http://www.w3.org/2000/svg">
<rect width="100" height="100" rx="16" fill="#1F1F1F"/>
<rect x="47.375" y="30.5751" width="5.25" height="12.6" fill="#F87315"/>
<rect x="67.7369" y="39.2374" width="5.25" height="12.6" transform="rotate(60 67.7369 39.2374)" fill="#FDFDFD"/>
<rect x="38.3369" y="52.625" width="5.25" height="12.6" transform="rotate(60 38.3369 52.625)" fill="#FDFDFD"/>
<rect x="40.9619" y="44.75" width="5.25" height="12.6" transform="rotate(120 40.9619 44.75)" fill="#FDFDFD"/>
<rect x="70.3619" y="57.6124" width="5.25" height="12.6" transform="rotate(120 70.3619 57.6124)" fill="#FDFDFD"/>
<rect x="47.375" y="59.4501" width="5.25" height="12.6" fill="#F87315"/>
<path d="M63.125 50C63.125 57.2487 57.2487 63.125 50 63.125C42.7513 63.125 36.875 57.2487 36.875 50C36.875 42.7513 42.7513 36.875 50 36.875C57.2487 36.875 63.125 42.7513 63.125 50ZM44.4048 50C44.4048 53.0901 46.9099 55.5952 50 55.5952C53.0901 55.5952 55.5952 53.0901 55.5952 50C55.5952 46.9099 53.0901 44.4048 50 44.4048C46.9099 44.4048 44.4048 46.9099 44.4048 50Z" fill="#F87315"/>
<circle cx="21.125" cy="36.875" r="13.125" fill="#FDFDFD"/>
<circle cx="78.875" cy="36.875" r="13.125" fill="#FDFDFD"/>
<circle cx="21.125" cy="65.75" r="13.125" fill="#FDFDFD"/>
<circle cx="78.875" cy="65.75" r="13.125" fill="#FDFDFD"/>
<path d="M63.125 78.875C63.125 86.1237 57.2487 92 50 92C42.7513 92 36.875 86.1237 36.875 78.875C36.875 71.6263 42.7513 65.75 50 65.75C57.2487 65.75 63.125 71.6263 63.125 78.875ZM44.4046 78.875C44.4046 81.9652 46.9098 84.4704 50 84.4704C53.0902 84.4704 55.5954 81.9652 55.5954 78.875C55.5954 75.7848 53.0902 73.2796 50 73.2796C46.9098 73.2796 44.4046 75.7848 44.4046 78.875Z" fill="#F87315"/>
<path d="M63.125 21.125C63.125 28.3737 57.2487 34.25 50 34.25C42.7513 34.25 36.875 28.3737 36.875 21.125C36.875 13.8763 42.7513 8 50 8C57.2487 8 63.125 13.8763 63.125 21.125ZM44.4046 21.125C44.4046 24.2152 46.9098 26.7204 50 26.7204C53.0902 26.7204 55.5954 24.2152 55.5954 21.125C55.5954 18.0348 53.0902 15.5296 50 15.5296C46.9098 15.5296 44.4046 18.0348 44.4046 21.125Z" fill="#F87315"/>
</svg>
